<svg id="filled_outline" height="512" viewBox="0 0 512 512" width="512" xmlns="http://www.w3.org/2000/svg" data-name="filled outline"><path d="m488 144v224a16 16 0 0 1 -16 16h-432a16 16 0 0 1 -16-16v-224z" fill="#548aff"/><path d="m24 144v-32a16 16 0 0 1 16-16h432a16 16 0 0 1 16 16v32z" fill="#7dafff"/><path d="m176 272h-40a16 16 0 0 1 -16-16 16 16 0 0 1 16-16h40z" fill="#91c0ff"/><path d="m176 240h200a16 16 0 0 1 16 16 16 16 0 0 1 -16 16h-200z" fill="#7dafff"/><circle cx="256" cy="112" fill="#ffc431" r="88"/><circle cx="256" cy="112" fill="#ffa100" r="24"/><path d="m208 384h96v64h-96z" fill="#d1e4ff"/><path d="m176 448h160v32h-160z" fill="#e8f2ff"/><path d="m472 88h-104v16h104a8.00917 8.00917 0 0 1 8 8v24h-120v16h120v216a8.00917 8.00917 0 0 1 -8 8h-432a8.00917 8.00917 0 0 1 -8-8v-216h120v-16h-120v-24a8.00917 8.00917 0 0 1 8-8h104v-16h-104a24.0275 24.0275 0 0 0 -24 24v256a24.0275 24.0275 0 0 0 24 24h160v48h-24a8.00008 8.00008 0 0 0 -8 8v32a8.00008 8.00008 0 0 0 8 8h12.686l5.65722 5.65723a8.00035 8.00035 0 0 0 5.65678 2.34277h16a8.00035 8.00035 0 0 0 5.65674-2.34277l5.65726-5.65723h57.372l5.65722 5.65723a8.00035 8.00035 0 0 0 5.65678 2.34277h16a8.00035 8.00035 0 0 0 5.65674-2.34277l5.65726-5.65723h12.686a8.00008 8.00008 0 0 0 8-8v-32a8.00008 8.00008 0 0 0 -8-8h-24v-48h160a24.0275 24.0275 0 0 0 24-24v-256a24.0275 24.0275 0 0 0 -24-24zm-256 304h32v24a8 8 0 0 0 16 0v-24h32v48h-80zm112 64v16h-144v-16z"/><circle cx="56" cy="120" r="8"/><circle cx="80" cy="120" r="8"/><circle cx="104" cy="120" r="8"/><path d="m400 256a24.0275 24.0275 0 0 0 -24-24h-240a24 24 0 0 0 0 48h240a24.0275 24.0275 0 0 0 24-24zm-232 8h-32a8 8 0 0 1 0-16h32zm16-16h192a8 8 0 0 1 0 16h-192z"/><path d="m152 304h40v16h-40z"/><path d="m208 304h40v16h-40z"/><path d="m264 304h40v16h-40z"/><path d="m320 304h40v16h-40z"/><path d="m256 16a96 96 0 1 0 96 96 96.10874 96.10874 0 0 0 -96-96zm0 176a80 80 0 1 1 80-80 80.09041 80.09041 0 0 1 -80 80z"/><path d="m256 80a32 32 0 1 0 32 32 32.03635 32.03635 0 0 0 -32-32zm0 48a16 16 0 1 1 16-16 16.01833 16.01833 0 0 1 -16 16z"/></svg>